<?xml version="1.0" encoding="utf-8"?>
<!-- Generator: Adobe Illustrator 24.1.2, SVG Export Plug-In . SVG Version: 6.00 Build 0)  -->
<svg version="1.1" id="Layer_1" focusable="false" xmlns="http://www.w3.org/2000/svg" xmlns:xlink="http://www.w3.org/1999/xlink"
	 x="0px" y="0px" viewBox="0 0 448 512" style="enable-background:new 0 0 448 512;" xml:space="preserve">
<style type="text/css">
	.st0{fill:#FFFFFF;}
</style>
<path d="M433.9,129.9l-83.9-83.9c-9-9-21.2-14.1-33.9-14.1H48C21.5,32,0,53.5,0,80v352c0,26.5,21.5,48,48,48h352
	c26.5,0,48-21.5,48-48V163.9C448,151.2,442.9,138.9,433.9,129.9z"/>
<path class="st0" d="M213.1,379.6c-49.9,0-90.4-40.5-90.4-90.4c0-49.9,40.5-90.4,90.4-90.4c12.4,0,24.3,2.5,35,7.1l-34.8,34.8
	l139.8,37.5l-37.5-139.8l-34.9,34.9c-19.9-11.6-43-18.3-67.6-18.3C139,155,78.9,215.1,78.9,289.2c0,74.1,60.1,134.2,134.2,134.2
	c50.1,0,93.7-27.4,116.8-68h-55.2C258.5,370.4,236.9,379.6,213.1,379.6z"/>
<path class="st0" d="M282.4,90.9H58.8c-6.6,0-12-5.4-12-12V17.9c0-6.6,5.4-12,12-12h223.6c6.6,0,12,5.4,12,12v60.9
	C294.4,85.5,289,90.9,282.4,90.9z"/>
</svg>
