<?xml version="1.0" encoding="utf-8"?>
<!-- Generator: Adobe Illustrator 24.1.2, SVG Export Plug-In . SVG Version: 6.00 Build 0)  -->
<svg version="1.1" id="Layer_1" focusable="false" xmlns="http://www.w3.org/2000/svg" xmlns:xlink="http://www.w3.org/1999/xlink"
	 x="0px" y="0px" viewBox="0 0 448 512" style="enable-background:new 0 0 448 512;" xml:space="preserve">
<style type="text/css">
	.st0{fill:#FFFFFF;}
</style>
<path d="M433.9,129.9l-83.9-83.9c-9-9-21.2-14.1-33.9-14.1H48C21.5,32,0,53.5,0,80v352c0,26.5,21.5,48,48,48h352
	c26.5,0,48-21.5,48-48V163.9C448,151.2,442.9,138.9,433.9,129.9z"/>
<path class="st0" d="M219.4,359.3c-52.3,0-94.6-42.4-94.6-94.6c0-52.3,42.4-94.6,94.6-94.6c13,0,25.4,2.7,36.7,7.4l-36.5,36.5
	l146.3,39.2l-39.2-146.3l-36.5,36.5c-20.8-12.2-45-19.1-70.8-19.1c-77.6,0-140.5,62.9-140.5,140.5c0,77.6,62.9,140.5,140.5,140.5
	c52.4,0,98.1-28.7,122.2-71.2h-57.8C266.9,349.7,244.3,359.3,219.4,359.3z"/>
</svg>
