<svg width="3266" height="2359" viewBox="0 0 3266 2359" fill="none" xmlns="http://www.w3.org/2000/svg">
<path fill-rule="evenodd" clip-rule="evenodd" d="M3266 1606.45C3266 1606.45 2607.7 853.898 1633 853.898C658.303 853.898 0 1606.45 0 1606.45C0 1606.45 658.303 2359 1633 2359C2607.7 2359 3266 1606.45 3266 1606.45ZM577.43 1432.19C485.023 1492.89 406.557 1553.57 343.938 1606.45C406.557 1659.33 485.023 1720.01 577.43 1780.71C840.468 1953.49 1204.93 2119.02 1633 2119.02C2061.07 2119.02 2425.53 1953.49 2688.57 1780.71C2780.98 1720.01 2859.44 1659.33 2922.06 1606.45C2859.44 1553.57 2780.98 1492.89 2688.57 1432.19C2425.53 1259.41 2061.07 1093.87 1633 1093.87C1204.93 1093.87 840.468 1259.41 577.43 1432.19ZM174.025 1445.81C174.02 1445.8 174.019 1445.8 174.02 1445.8L174.023 1445.81C174.023 1445.81 174.024 1445.81 174.025 1445.81Z" fill="black"/>
<path d="M1633.88 1093.48C904.388 1093.48 277.447 643.661 2.92969 9.79867e-05C2.92969 9.79867e-05 510.903 728.987 1633.88 728.987C2756.86 728.987 3264.84 9.79867e-05 3264.84 9.79867e-05C2990.32 643.661 2363.38 1093.48 1633.88 1093.48Z" fill="black"/>
<path d="M1951.76 1607.41C1951.76 1786.96 1809.67 1932.52 1634.4 1932.52C1459.13 1932.52 1317.04 1786.96 1317.04 1607.41C1317.04 1427.85 1459.13 1282.29 1634.4 1282.29C1809.67 1282.29 1951.76 1427.85 1951.76 1607.41Z" fill="black"/>
</svg>
